<svg version="1.1" id="Layer_1" xmlns="http://www.w3.org/2000/svg" xmlns:xlink="http://www.w3.org/1999/xlink" x="0px" y="0px"
	 width="100%" viewBox="0 0 449 555" enable-background="new 0 0 449 555" xml:space="preserve">
<path fill="#000000" opacity="1.000000" stroke="none" 
	d="
M450.000000,206.000000 
	C450.000000,322.999969 450.000000,439.499969 450.000000,556.000000 
	C300.333405,556.000000 150.666794,556.000000 1.000143,556.000000 
	C1.000095,371.000122 1.000095,186.000214 1.000048,1.000242 
	C150.666519,1.000161 300.333038,1.000161 449.999786,1.000081 
	C450.000000,69.166664 450.000000,137.333328 450.000000,206.000000 
M312.947052,56.164589 
	C312.435242,52.376205 311.923462,48.587822 311.411652,44.799438 
	C311.048126,44.777718 310.684601,44.755997 310.321075,44.734280 
	C309.307068,48.457809 308.293060,52.181339 306.985779,56.587147 
	C305.984009,59.398331 304.982239,62.209515 303.997162,64.997902 
	C303.997162,64.997902 304.019379,64.979530 303.550659,65.648285 
	C303.217438,68.746910 303.101898,71.888603 302.499298,74.933922 
	C301.624207,79.356171 303.448517,81.456810 307.179901,83.973106 
	C313.592926,88.297783 319.120819,93.935028 324.353607,98.808418 
	C315.599670,94.563332 306.845764,90.318245 298.129822,85.988754 
	C298.129822,85.988754 297.876282,85.847313 297.308105,85.648811 
	C294.574554,84.803871 291.841034,83.958923 289.325256,83.030937 
	C289.161652,82.946396 288.998016,82.861855 288.151703,82.699242 
	C280.432373,80.340309 272.689453,78.055260 265.001099,75.599358 
	C258.714081,73.591087 252.120667,72.090782 246.338074,69.072227 
	C239.528900,65.517769 233.100388,60.996185 227.122604,56.136501 
	C214.649429,45.996323 202.906189,35.132011 198.247650,18.829508 
	C197.329605,15.616846 195.869705,12.559025 194.659698,9.429793 
	C193.158691,14.599236 191.953979,19.680019 192.201385,24.689085 
	C192.504669,30.829882 194.022705,36.910683 194.996811,42.999008 
	C194.996811,42.999008 194.979416,42.978519 195.006775,43.803074 
	C195.130707,50.690517 198.693466,56.084084 202.605331,61.332207 
	C206.801819,66.962135 210.543579,73.010536 215.290237,78.128349 
	C219.983627,83.188721 225.396408,87.729706 231.070892,91.666389 
	C233.683670,93.479012 237.673904,93.306152 240.765930,94.052589 
	C240.586746,94.160034 240.407547,94.267479 240.228348,94.374916 
	C240.486130,94.245506 240.743912,94.116096 241.766876,94.103745 
	C251.456741,97.689766 261.146606,101.275795 270.776398,105.018250 
	C270.776398,105.018250 270.907959,105.306831 270.907959,105.306831 
	C270.907959,105.306831 271.238647,105.262985 271.816620,105.530914 
	C276.358124,107.970703 280.839355,110.533997 285.468994,112.793175 
	C287.492920,113.780807 290.131470,113.675812 291.953308,114.880188 
	C298.063049,118.919189 303.927673,123.328583 309.891602,127.588562 
	C314.456573,130.849289 319.720764,133.456573 323.460205,137.482025 
	C332.120697,146.804962 340.081146,156.781754 348.223267,166.578369 
	C349.242615,167.804855 349.645508,169.543716 350.540222,171.494797 
	C345.771057,171.858765 344.986877,168.614716 343.213409,166.366974 
	C340.369415,162.762390 337.467743,159.104813 334.056274,156.070160 
	C329.262024,151.805496 323.360992,148.665726 319.034668,144.019363 
	C310.294403,134.632538 298.715942,130.046906 288.002106,123.997726 
	C288.002106,123.997726 288.018463,124.018478 287.634277,123.571426 
	C282.642548,121.383095 277.824127,118.558929 272.622375,117.140945 
	C262.309937,114.329765 251.799789,112.230782 241.345245,109.957451 
	C231.855545,107.893913 222.372345,105.747749 212.804321,104.119812 
	C208.184891,103.333847 203.368027,103.779678 198.657455,103.436005 
	C194.713638,103.148285 190.710052,101.765060 186.880096,102.190788 
	C175.459595,103.460228 164.457840,101.330559 153.491379,98.913712 
	C144.592926,96.952621 135.578232,95.073166 127.078941,91.910812 
	C121.819504,89.953918 117.214729,85.933868 112.698677,82.356918 
	C106.588882,77.517670 100.775391,72.293167 94.992928,67.059219 
	C93.435699,65.649704 92.451149,63.607483 91.203720,61.855694 
	C90.633369,62.124821 90.063019,62.393951 89.492668,62.663078 
	C89.930145,65.879967 90.046509,69.180931 90.862770,72.298645 
	C93.806786,83.543297 100.118553,92.995346 106.806862,102.332687 
	C111.127556,108.364670 114.465118,115.355537 121.108894,119.080956 
	C131.426514,124.866440 141.863831,130.613525 152.768402,135.124817 
	C162.460770,139.134628 173.036514,140.434265 183.581985,141.064392 
	C187.216904,141.281601 190.834015,141.828491 194.452866,142.276428 
	C200.508926,143.026077 206.541107,144.113312 212.618820,144.498260 
	C217.578186,144.812378 222.594116,144.114243 227.575928,144.235687 
	C230.839935,144.315247 234.075653,145.273926 237.345367,145.456146 
	C244.932388,145.878998 252.539627,145.950546 260.123383,146.414673 
	C263.064209,146.594650 265.963715,147.449661 268.882050,147.997147 
	C264.097229,149.226730 259.333069,149.851593 254.561157,149.917862 
	C241.986694,150.092499 229.408844,150.024628 216.832352,150.052444 
	C216.499466,150.053177 216.150452,149.975296 215.836060,150.049255 
	C210.853394,151.221405 205.920898,153.146866 200.887299,153.460159 
	C186.309296,154.367493 172.989563,158.647537 160.674316,166.403351 
	C158.592316,167.714493 156.066345,168.300140 153.890137,169.486328 
	C148.865112,172.225311 143.928864,175.127182 138.925339,178.004822 
	C138.925339,178.004822 139.047958,178.054352 139.485138,178.051041 
	C142.900955,178.725952 146.314941,179.410355 149.733353,180.071854 
	C151.496613,180.413055 153.267792,180.713470 154.747147,181.034637 
	C154.557785,181.167023 154.368408,181.299423 154.179047,181.431808 
	C154.451294,181.281494 154.723557,181.131195 155.827805,181.032913 
	C162.214020,182.685165 168.600250,184.337418 174.937286,186.016785 
	C174.937286,186.016785 175.017273,186.020752 175.520126,186.137222 
	C188.650864,191.065750 201.781601,195.994278 214.912354,200.922806 
	C214.702682,201.597702 214.493027,202.272583 214.283371,202.947479 
	C212.114578,202.524689 209.956268,202.035629 207.775101,201.691238 
	C200.433594,200.532059 193.096527,199.332001 185.732819,198.330917 
	C181.173752,197.711090 176.569489,197.423553 172.009827,196.954056 
	C172.009827,196.954056 172.014404,197.016571 171.120865,197.013657 
	C161.199234,195.980743 151.294998,194.324417 141.352295,194.047180 
	C121.823631,193.502640 102.273331,193.641144 82.732544,193.696381 
	C78.477394,193.708420 74.224602,194.558289 69.991936,195.001022 
	C69.991936,195.001022 70.008148,194.976562 69.347832,195.205246 
	C54.575317,203.051178 43.271473,214.886826 32.670292,227.445007 
	C29.398008,231.321350 26.854660,235.813034 23.996162,240.001083 
	C23.996162,240.001083 24.016874,239.981644 23.587357,240.329132 
	C22.143270,242.286118 20.472464,244.117828 19.306206,246.228348 
	C17.371386,249.729691 15.760978,253.410294 13.987014,257.038086 
	C13.987014,257.038086 13.983971,256.985260 14.687039,256.861420 
	C19.229748,253.877197 23.462561,250.161682 28.385788,248.075424 
	C36.318092,244.714035 42.705585,237.640823 52.258259,237.996368 
	C53.501568,238.042648 54.772484,236.538498 56.081352,235.848785 
	C57.528702,235.086090 58.968063,234.161377 60.526466,233.782333 
	C66.532326,232.321487 72.554665,230.891571 78.628120,229.756531 
	C83.977036,228.756882 89.380981,227.854599 94.799965,227.483231 
	C100.078400,227.121490 105.422630,227.251282 110.708282,227.606705 
	C115.192017,227.908234 119.633408,228.839584 124.093536,229.492218 
	C124.059090,230.089066 124.024643,230.685913 123.990196,231.282761 
	C113.653458,233.861359 103.316727,236.439972 92.999596,238.997086 
	C92.999596,238.997086 93.022614,238.979218 92.255875,239.082611 
	C76.114037,243.666321 60.976624,249.695023 53.541889,266.525787 
	C51.760551,270.558350 50.480282,274.826111 48.522434,278.763367 
	C46.006992,283.821960 42.150772,288.368713 40.445827,293.644501 
	C36.406143,306.144836 31.133806,318.279449 30.910797,331.928040 
	C30.664528,347.000244 28.866573,362.041321 28.106686,377.114258 
	C27.869818,381.812714 28.810209,386.570526 29.211676,391.301147 
	C29.790281,391.301636 30.368887,391.302094 30.947493,391.302582 
	C31.391151,389.774170 32.104103,388.268219 32.233967,386.713593 
	C32.976345,377.826324 34.579754,369.123138 38.289368,360.983124 
	C41.021786,354.987427 44.356277,349.268951 47.206635,343.323456 
	C50.645115,336.151123 53.542717,328.702545 57.279770,321.696472 
	C59.584892,317.374908 63.108372,313.717499 65.927666,309.652893 
	C71.532104,301.572968 76.584122,293.063019 82.705254,285.402679 
	C87.859482,278.952423 94.197334,273.446594 100.023911,267.535187 
	C112.591568,254.784561 128.991486,247.934219 144.024994,239.022919 
	C144.024994,239.022919 143.977585,239.020538 144.524216,238.592041 
	C151.434189,234.514740 167.387726,230.411423 170.637543,232.400497 
	C165.201538,234.463043 159.891541,235.862457 155.174362,238.374878 
	C135.529480,248.837875 118.391174,262.668793 102.868706,278.539307 
	C99.381546,282.104614 97.427483,286.197815 97.972542,291.548615 
	C98.809586,299.765717 98.762589,308.074371 99.641708,316.285187 
	C100.315063,322.574280 101.839676,328.772247 102.997864,334.998077 
	C102.997864,334.998077 103.011047,334.986359 102.704102,335.453827 
	C103.394501,337.580811 104.084892,339.707764 104.651581,342.027161 
	C104.832314,342.077820 105.013046,342.128479 105.369019,342.732269 
	C106.560745,346.472687 107.752480,350.213104 108.902092,353.997711 
	C108.902092,353.997711 109.029572,354.037201 109.452461,354.585876 
	C112.553734,362.194244 115.202599,370.032898 118.916748,377.329285 
	C121.356133,382.121399 125.792435,385.861694 128.534729,390.541656 
	C136.194138,403.612976 146.565277,414.262299 158.681335,422.884918 
	C167.851227,429.410797 176.256531,437.420227 187.535858,440.783783 
	C190.355438,441.624573 192.620102,444.176697 195.337067,445.552826 
	C198.090790,446.947540 201.088699,447.860168 203.933624,449.013947 
	C203.933624,449.013947 204.023849,449.028717 204.676041,449.138824 
	C206.064117,449.714630 207.452209,450.290466 208.798981,451.006104 
	C208.798981,451.006104 208.923447,451.254883 208.923447,451.254883 
	C208.923447,451.254883 209.212540,451.236359 209.771698,451.492645 
	C213.502380,452.652496 217.233063,453.812378 220.917526,455.012634 
	C220.917526,455.012634 221.040390,455.050018 221.644562,455.360504 
	C223.940536,456.214600 226.188187,457.243591 228.540527,457.893768 
	C241.535187,461.485260 254.801178,462.833099 268.259613,462.499908 
	C269.075348,462.479675 269.898621,462.836670 270.716705,462.829407 
	C280.606842,462.741730 290.496704,462.621033 300.386047,462.470551 
	C300.490204,462.468994 300.586578,461.955750 300.678528,461.703491 
	C293.769165,457.209045 285.921417,456.460236 278.148956,455.972870 
	C278.148956,455.972870 278.290497,455.754547 278.290497,455.754547 
	C278.290497,455.754547 277.999817,455.998779 277.406647,455.859558 
	C276.641449,455.602875 275.876221,455.346191 275.155853,454.984924 
	C275.155853,454.984924 274.838623,454.808014 274.170807,454.791138 
	C271.774628,453.855133 269.378418,452.919159 267.000305,451.995667 
	C267.000305,451.995667 267.013123,452.013123 266.552734,451.506104 
	C265.031006,450.998688 263.509308,450.491272 262.001404,449.996826 
	C262.001404,449.996826 262.013855,450.011047 261.588806,449.443329 
	C255.786240,446.830719 249.714050,444.678467 244.254395,441.480469 
	C238.400543,438.051605 232.750946,434.058502 227.678604,429.560211 
	C219.506119,422.312775 211.242981,414.993530 204.172012,406.718628 
	C193.449402,394.170380 184.499222,380.289764 178.002167,365.001312 
	C178.002167,365.001312 178.015182,365.015778 177.835495,364.327606 
	C176.171753,358.344330 174.054489,352.443726 172.945099,346.359375 
	C171.036087,335.889679 171.255219,325.516113 173.117233,314.812927 
	C174.492493,306.907837 179.938004,303.121887 184.245163,298.038025 
	C186.955917,294.838440 190.499222,292.286469 193.885117,289.730133 
	C199.030640,285.845306 203.538803,280.552185 211.958908,281.232056 
	C210.758102,282.967133 209.889969,284.352661 208.893311,285.638550 
	C204.927063,290.755737 198.118042,293.669037 197.000000,301.000000 
	C197.000000,301.000000 196.997864,301.002411 196.555405,301.563263 
	C195.896057,304.719208 194.962921,307.848755 194.655212,311.038605 
	C194.354248,314.158691 195.218155,317.441345 194.636841,320.473633 
	C193.462509,326.599335 195.383072,331.900238 198.984604,336.295074 
	C201.898361,339.850647 205.964188,342.521057 209.716736,345.318817 
	C219.563431,352.660034 230.962677,357.292542 242.629547,359.851868 
	C251.931747,361.892395 258.793915,366.816803 265.890167,372.103088 
	C269.016510,374.431976 272.020477,376.925171 275.338654,379.548218 
	C275.860840,373.522186 276.931305,367.916443 276.657349,362.377258 
	C276.398743,357.147949 279.275940,357.220551 282.496429,357.903717 
	C284.468170,358.322021 286.185547,359.939392 287.985016,361.034760 
	C287.985016,361.034760 287.981537,360.982758 288.696106,361.123230 
	C298.682526,367.678986 309.107666,373.670563 318.508026,380.980042 
	C325.279968,386.245728 331.367279,392.759766 336.506287,399.651794 
	C341.427368,406.251526 344.731842,414.056885 348.738098,421.337128 
	C348.811584,421.470673 348.777252,421.663605 348.756012,421.956818 
	C348.756012,421.956818 349.093445,422.116058 349.525970,422.633240 
	C351.207123,428.288788 353.441711,433.851562 354.409332,439.626678 
	C355.325378,445.093781 354.845764,450.787231 355.149689,456.371918 
	C355.199402,457.285461 356.126007,458.151276 357.254150,460.072693 
	C358.356812,457.456940 358.928345,455.833099 359.705627,454.314514 
	C361.196655,451.401489 362.541595,448.362030 364.420105,445.710052 
	C368.002136,440.653076 371.905212,435.822784 375.696167,430.914703 
	C378.298706,427.545227 376.993713,425.323303 373.854614,423.162811 
	C363.580200,416.091553 356.450867,406.455933 351.911224,394.939911 
	C351.242737,393.244080 351.949493,391.006134 351.998169,389.002625 
	C351.998169,389.002625 351.980194,388.981384 352.493744,389.325317 
	C354.303955,389.530273 356.114197,389.735229 357.881134,390.014160 
	C357.881134,390.014160 358.106506,390.131927 358.744049,390.288116 
	C360.280090,391.491302 362.289398,392.395294 363.271332,393.948730 
	C367.837067,401.171722 371.910553,408.710846 376.593719,415.852539 
	C378.769745,419.170898 381.038696,423.038940 386.000275,422.999542 
	C386.000275,422.999542 386.007874,422.991394 386.634521,422.854950 
	C392.166321,420.259613 397.724701,417.719086 403.222015,415.052673 
	C408.242188,412.617767 413.149475,409.947327 418.194794,407.567871 
	C422.021423,405.763123 423.357117,402.820618 423.188354,398.783264 
	C423.135620,397.522644 423.736420,396.234680 424.005402,395.689575 
	C424.005402,397.002106 424.005402,398.314667 424.005402,399.627197 
	C424.397156,399.566406 424.788940,399.505585 425.180695,399.444794 
	C424.783173,397.962250 424.385651,396.479675 424.071228,394.302643 
	C424.387054,393.194824 424.702881,392.086975 425.023621,391.029541 
	C425.023621,391.029541 424.976929,391.021484 425.080078,390.296478 
	C427.015259,387.551880 428.847107,384.726410 430.913635,382.084564 
	C433.140320,379.237915 435.758362,376.683044 437.820160,373.731567 
	C438.353210,372.968506 437.891235,370.477417 437.125397,369.999451 
	C429.260406,365.091187 421.164642,360.553650 413.282990,355.671021 
	C406.263519,351.322479 399.432648,346.669556 392.518555,342.150940 
	C392.835724,341.498138 393.152924,340.845306 393.470123,340.192505 
	C400.689240,342.778839 407.908356,345.365143 415.127472,347.951477 
	C415.437531,347.403412 415.747559,346.855347 416.057617,346.307251 
	C414.727417,344.501984 413.432983,342.669037 412.060791,340.896271 
	C406.432343,333.624542 402.259949,325.561798 399.000000,317.000000 
	C399.000000,317.000000 399.001892,317.001709 398.950684,316.178589 
	C398.252869,309.419189 397.408173,302.670898 396.897247,295.897400 
	C396.352692,288.678497 398.916260,282.632446 404.300781,277.697144 
	C413.011292,269.713409 413.152802,265.848755 405.409149,256.859741 
	C404.222351,255.482086 402.861908,254.123154 402.130524,252.507202 
	C399.331787,246.323410 396.217163,240.202469 394.252686,233.744095 
	C392.343292,227.466644 389.968964,220.550842 390.875641,214.366455 
	C392.526550,203.105759 392.777374,192.462143 388.000458,182.000671 
	C388.000458,182.000671 387.992065,182.009201 388.267822,181.457245 
	C386.240662,176.356049 384.213470,171.254868 382.220642,166.030930 
	C382.220642,166.030930 381.890472,165.868195 381.570892,165.386505 
	C379.234100,160.283157 377.693512,154.581894 374.400330,150.196762 
	C366.761017,140.024429 358.597870,130.193420 350.023621,120.792702 
	C343.862030,114.037163 336.693207,108.200287 330.444763,102.049614 
	C331.919861,100.544113 331.879974,100.571228 330.092377,97.942528 
	C321.604065,85.460205 315.196930,72.102692 312.947052,56.164589 
M80.977928,181.982407 
	C80.977928,181.982407 80.955200,181.963547 81.733444,182.255142 
	C92.230446,182.596924 102.898056,185.839981 112.733681,178.670883 
	C120.072678,173.321564 128.027878,168.815277 135.731674,163.970139 
	C138.445480,162.263367 141.227600,160.665192 144.004990,158.990952 
	C144.004990,158.990952 144.032318,158.964081 144.758133,158.855820 
	C150.953751,156.867798 157.140594,154.851944 163.347580,152.900055 
	C168.888138,151.157730 174.450897,149.486038 180.797806,147.539703 
	C178.703110,146.811035 177.007278,145.990494 175.219330,145.639893 
	C168.237366,144.270737 161.054886,143.631271 154.268860,141.629318 
	C145.548462,139.056732 137.229507,135.142120 128.546021,132.415970 
	C125.301231,131.397278 121.517357,132.095718 118.000191,131.995972 
	C118.000191,131.995972 118.019470,131.977005 117.400063,132.200348 
	C112.556511,133.242218 107.463318,133.658035 102.925835,135.467438 
	C95.452324,138.447678 88.251793,142.162399 81.092537,145.869431 
	C69.470856,151.887070 57.299694,156.604736 46.729778,164.941544 
	C36.366108,173.115662 26.491673,181.649918 17.347878,191.096954 
	C16.302721,192.176758 15.670703,193.656448 14.847131,194.950714 
	C15.148675,195.435822 15.450219,195.920929 15.751763,196.406036 
	C23.180851,193.930237 30.609938,191.454453 38.018429,188.992706 
	C38.018429,188.992706 38.007736,189.010178 38.525291,188.886765 
	C52.212242,183.712051 66.561028,182.620804 80.977928,181.982407 
M96.001717,359.997559 
	C96.001717,359.997559 96.016045,360.017914 95.935249,359.424744 
	C95.287628,357.616455 94.640015,355.808136 94.295319,353.529541 
	C94.190125,352.679169 94.084930,351.828766 93.793465,350.204620 
	C92.829140,340.751312 91.864815,331.297974 90.956535,320.934479 
	C90.980499,314.348328 91.053818,307.761627 90.979286,301.176575 
	C90.967026,300.093384 90.305443,299.017487 89.449173,297.694824 
	C85.642586,295.768738 85.051308,299.518127 83.485374,301.229156 
	C69.084137,316.964722 58.657097,335.360657 49.304394,354.293701 
	C47.137215,358.680847 48.360764,364.742981 48.009506,370.015686 
	C48.009506,370.015686 47.993122,370.006989 48.231884,370.695892 
	C48.523289,374.084106 48.282360,377.624420 49.199272,380.833954 
	C52.946640,393.951111 57.047688,406.967285 60.996559,419.999512 
	C60.996559,419.999512 60.977089,419.975800 61.166470,420.661774 
	C63.456741,425.227570 65.722160,429.806030 68.042709,434.356384 
	C72.245010,442.596619 75.494568,451.548096 80.917870,458.890869 
	C90.595680,471.993958 101.586960,484.127686 112.057831,496.642639 
	C112.742554,497.460999 113.671562,498.075012 115.158409,499.368011 
	C115.591331,497.443329 116.257637,496.181488 116.046379,495.089447 
	C115.495422,492.241516 114.170540,489.512329 113.845192,486.657074 
	C112.418961,474.140594 111.237701,461.596161 109.973564,448.114746 
	C109.595749,442.075287 109.217934,436.035828 109.139816,429.267120 
	C109.872879,424.033234 110.471222,418.776123 111.369446,413.570740 
	C112.846581,405.010498 112.378998,396.826385 107.856636,389.115906 
	C104.906197,384.085480 100.486710,379.646973 100.946007,373.111328 
	C100.975937,372.685455 100.495491,372.242462 100.324348,371.780792 
	C98.867477,367.851196 97.427277,363.915375 96.001717,359.997559 
M233.106155,549.222351 
	C233.220932,549.180115 233.335709,549.137878 233.450485,549.095642 
	C233.289917,549.073425 233.129349,549.051208 233.641449,548.823608 
	C235.274796,548.861389 236.947281,548.682678 238.535583,548.969727 
	C258.612518,552.598450 278.272583,548.187500 298.023682,545.985779 
	C298.023682,545.985779 298.010132,546.007324 298.818390,545.914490 
	C299.967194,545.741272 301.170380,545.731018 302.256134,545.368835 
	C310.523590,542.611206 318.768097,539.784729 327.021912,537.028259 
	C327.021912,537.028259 326.980896,537.017212 327.531952,536.612976 
	C329.028992,536.067200 330.526031,535.521484 332.027954,535.020203 
	C332.027954,535.020203 331.975220,535.021790 332.490875,534.597168 
	C344.465271,529.683167 356.439697,524.769165 368.414093,519.855164 
	C368.344543,519.443298 368.274963,519.031494 368.205414,518.619629 
	C366.797577,518.752136 365.389709,518.884644 363.998779,518.997620 
	C363.998779,518.997620 364.019501,518.982544 363.182098,519.033264 
	C355.503143,519.086060 348.250427,523.694702 340.315765,521.182312 
	C339.928986,521.059814 339.394073,521.514465 338.916595,521.551453 
	C335.773743,521.795105 332.627777,522.155396 329.482758,522.156128 
	C327.542847,522.156555 325.612396,521.417419 323.661041,521.308350 
	C318.086029,520.996826 312.501678,520.854370 306.923309,520.595642 
	C306.282715,520.565979 305.656677,520.222229 305.304108,520.011230 
	C305.477509,519.854919 305.650909,519.698547 305.824341,519.542297 
	C305.545868,519.687683 305.267395,519.833069 304.137390,519.960327 
	C293.132721,516.661926 281.934265,513.886658 271.182953,509.904266 
	C262.101685,506.540436 253.528244,501.799286 244.755539,497.614227 
	C243.021164,496.786835 241.234650,495.923187 239.758209,494.724091 
	C229.613846,486.485352 219.782333,477.837555 209.340652,470.000122 
	C204.932983,466.691772 198.949066,465.549408 194.290237,462.494415 
	C187.149002,457.811584 180.504486,452.364868 173.705521,447.168640 
	C168.846085,443.454681 163.956375,439.763336 159.310364,435.792572 
	C155.728317,432.731171 152.419159,429.332458 149.152939,425.926208 
	C147.229340,423.920135 145.676880,421.563538 143.866745,419.442017 
	C141.366180,416.511414 138.609406,413.784271 136.275467,410.730652 
	C133.596970,407.226257 131.260788,403.460236 128.775909,399.807831 
	C128.418777,400.033234 128.061646,400.258606 127.704506,400.483978 
	C127.177910,406.282959 126.651314,412.081940 126.031189,417.695374 
	C125.935997,417.860168 125.840805,418.024963 125.763199,418.891937 
	C125.522530,420.246765 125.281853,421.601562 125.001770,422.812439 
	C125.001770,422.812439 124.744270,422.693695 124.744270,422.693695 
	C124.744270,422.693695 124.953766,423.027832 124.874527,423.620544 
	C124.421021,425.670013 123.895699,427.706757 123.528732,429.771606 
	C122.726852,434.283569 122.008163,438.810303 121.250580,443.330170 
	C119.525360,453.623077 116.198082,463.759338 124.824432,473.227264 
	C131.790115,480.872467 137.093079,490.015869 143.890839,497.836487 
	C148.756744,503.434509 154.891495,507.925720 160.426300,512.948059 
	C162.846512,515.144226 164.957642,517.752441 167.602570,519.614746 
	C173.254211,523.594055 179.162384,527.208984 184.915146,531.015503 
	C184.915146,531.015503 185.043442,531.053955 185.718399,531.244568 
	C191.593979,534.521606 197.163239,538.665894 203.416214,540.874512 
	C213.035828,544.272278 223.124786,546.341248 233.106155,549.222351 
M255.199661,148.972977 
	C255.827347,148.909790 256.455017,148.846619 257.082703,148.783432 
	C257.076019,148.620834 257.069336,148.458237 257.062683,148.295639 
	C250.615356,148.295639 244.168030,148.295639 237.720718,148.295639 
	C237.718216,148.519470 237.715714,148.743286 237.713211,148.967117 
	C243.306274,148.967117 248.899353,148.967117 255.199661,148.972977 
M371.474854,518.458435 
	C371.474854,518.458435 371.501221,518.521179 371.474854,518.458435 
z"/>
<path fill="#1C1C1C" opacity="1.000000" stroke="none" 
	d="
M385.994659,423.004333 
	C381.038696,423.038940 378.769745,419.170898 376.593719,415.852539 
	C371.910553,408.710846 367.837067,401.171722 363.271332,393.948730 
	C362.289398,392.395294 360.280090,391.491302 358.379822,390.162048 
	C358.015564,390.035950 357.924408,389.940216 357.924408,389.940186 
	C356.114197,389.735229 354.303955,389.530273 352.254974,389.145142 
	C352.016205,388.964935 352.019958,389.019012 352.019958,389.019012 
	C351.949493,391.006134 351.242737,393.244080 351.911224,394.939911 
	C356.450867,406.455933 363.580200,416.091553 373.854614,423.162811 
	C376.993713,425.323303 378.298706,427.545227 375.696167,430.914703 
	C371.905212,435.822784 368.002136,440.653076 364.420105,445.710052 
	C362.541595,448.362030 361.196655,451.401489 359.705627,454.314514 
	C358.928345,455.833099 358.356812,457.456940 357.254150,460.072693 
	C356.126007,458.151276 355.199402,457.285461 355.149689,456.371918 
	C354.845764,450.787231 355.325378,445.093781 354.409332,439.626678 
	C353.441711,433.851562 351.207123,428.288788 349.234619,422.302856 
	C348.943298,421.972504 348.793274,421.828796 348.793274,421.828796 
	C348.777252,421.663605 348.811584,421.470673 348.738098,421.337128 
	C344.731842,414.056885 341.427368,406.251526 336.506287,399.651794 
	C331.367279,392.759766 325.279968,386.245728 318.508026,380.980042 
	C309.107666,373.670563 298.682526,367.678986 288.348999,361.060486 
	C288.001892,360.997772 288.017151,361.018280 288.017151,361.018280 
	C286.185547,359.939392 284.468170,358.322021 282.496429,357.903717 
	C279.275940,357.220551 276.398743,357.147949 276.657349,362.377258 
	C276.931305,367.916443 275.860840,373.522186 275.338654,379.548218 
	C272.020477,376.925171 269.016510,374.431976 265.890167,372.103088 
	C258.793915,366.816803 251.931747,361.892395 242.629547,359.851868 
	C230.962677,357.292542 219.563431,352.660034 209.716736,345.318817 
	C205.964188,342.521057 201.898361,339.850647 198.984604,336.295074 
	C195.383072,331.900238 193.462509,326.599335 194.636841,320.473633 
	C195.218155,317.441345 194.354248,314.158691 194.655212,311.038605 
	C194.962921,307.848755 195.896057,304.719208 196.786179,301.304626 
	C197.016953,301.046021 197.003464,300.996948 197.003464,300.996948 
	C198.118042,293.669037 204.927063,290.755737 208.893311,285.638550 
	C209.889969,284.352661 210.758102,282.967133 211.958908,281.232056 
	C203.538803,280.552185 199.030640,285.845306 193.885117,289.730133 
	C190.499222,292.286469 186.955917,294.838440 184.245163,298.038025 
	C179.938004,303.121887 174.492493,306.907837 173.117233,314.812927 
	C171.255219,325.516113 171.036087,335.889679 172.945099,346.359375 
	C174.054489,352.443726 176.171753,358.344330 177.901840,364.672302 
	C177.968185,365.016968 177.990128,364.988617 177.990128,364.988617 
	C184.499222,380.289764 193.449402,394.170380 204.172012,406.718628 
	C211.242981,414.993530 219.506119,422.312775 227.678604,429.560211 
	C232.750946,434.058502 238.400543,438.051605 244.254395,441.480469 
	C249.714050,444.678467 255.786240,446.830719 261.791382,449.748840 
	C261.993988,450.054382 261.987579,449.983856 261.987579,449.983856 
	C263.509308,450.491272 265.031006,450.998688 266.770142,451.773621 
	C266.987579,452.041168 266.982208,451.983185 266.982208,451.983185 
	C269.378418,452.919159 271.774628,453.855133 274.572784,454.869965 
	C274.974762,454.948792 275.110992,455.089508 275.110992,455.089478 
	C275.876221,455.346191 276.641449,455.602875 277.703308,455.929779 
	C278.000000,456.000000 278.001221,456.000702 278.001221,456.000702 
	C285.921417,456.460236 293.769165,457.209045 300.678528,461.703491 
	C300.586578,461.955750 300.490204,462.468994 300.386047,462.470551 
	C290.496704,462.621033 280.606842,462.741730 270.716705,462.829407 
	C269.898621,462.836670 269.075348,462.479675 268.259613,462.499908 
	C254.801178,462.833099 241.535187,461.485260 228.540527,457.893768 
	C226.188187,457.243591 223.940536,456.214600 221.323242,455.185913 
	C221.001907,455.011322 220.963745,454.972260 220.963745,454.972229 
	C217.233063,453.812378 213.502380,452.652496 209.398727,451.272339 
	C209.025757,451.052002 208.840286,450.866272 208.840286,450.866272 
	C207.452209,450.290466 206.064117,449.714630 204.338974,449.072174 
	C204.001907,449.005524 203.979645,448.983978 203.979645,448.983978 
	C201.088699,447.860168 198.090790,446.947540 195.337067,445.552826 
	C192.620102,444.176697 190.355438,441.624573 187.535858,440.783783 
	C176.256531,437.420227 167.851227,429.410797 158.681335,422.884918 
	C146.565277,414.262299 136.194138,403.612976 128.534729,390.541656 
	C125.792435,385.861694 121.356133,382.121399 118.916748,377.329285 
	C115.202599,370.032898 112.553734,362.194244 109.219566,354.290710 
	C108.986671,353.995575 108.944214,353.953522 108.944214,353.953522 
	C107.752480,350.213104 106.560745,346.472687 105.176872,342.369507 
	C104.984726,342.006714 104.775291,341.834747 104.775291,341.834747 
	C104.084892,339.707764 103.394501,337.580811 102.880501,335.229065 
	C103.056900,335.004272 102.985680,335.010742 102.985680,335.010742 
	C101.839676,328.772247 100.315063,322.574280 99.641708,316.285187 
	C98.762589,308.074371 98.809586,299.765717 97.972542,291.548615 
	C97.427483,286.197815 99.381546,282.104614 102.868706,278.539307 
	C118.391174,262.668793 135.529480,248.837875 155.174362,238.374878 
	C159.891541,235.862457 165.201538,234.463043 170.637543,232.400497 
	C167.387726,230.411423 151.434189,234.514740 144.261658,238.794861 
	C143.999084,238.997665 144.022827,238.976990 144.022827,238.976990 
	C128.991486,247.934219 112.591568,254.784561 100.023911,267.535187 
	C94.197334,273.446594 87.859482,278.952423 82.705254,285.402679 
	C76.584122,293.063019 71.532104,301.572968 65.927666,309.652893 
	C63.108372,313.717499 59.584892,317.374908 57.279770,321.696472 
	C53.542717,328.702545 50.645115,336.151123 47.206635,343.323456 
	C44.356277,349.268951 41.021786,354.987427 38.289368,360.983124 
	C34.579754,369.123138 32.976345,377.826324 32.233967,386.713593 
	C32.104103,388.268219 31.391151,389.774170 30.947493,391.302582 
	C30.368887,391.302094 29.790281,391.301636 29.211676,391.301147 
	C28.810209,386.570526 27.869818,381.812714 28.106686,377.114258 
	C28.866573,362.041321 30.664528,347.000244 30.910797,331.928040 
	C31.133806,318.279449 36.406143,306.144836 40.445827,293.644501 
	C42.150772,288.368713 46.006992,283.821960 48.522434,278.763367 
	C50.480282,274.826111 51.760551,270.558350 53.541889,266.525787 
	C60.976624,249.695023 76.114037,243.666321 92.642258,239.050232 
	C93.028633,239.017838 92.979988,239.018570 92.979988,239.018570 
	C103.316727,236.439972 113.653458,233.861359 123.990196,231.282761 
	C124.024643,230.685913 124.059090,230.089066 124.093536,229.492218 
	C119.633408,228.839584 115.192017,227.908234 110.708282,227.606705 
	C105.422630,227.251282 100.078400,227.121490 94.799965,227.483231 
	C89.380981,227.854599 83.977036,228.756882 78.628120,229.756531 
	C72.554665,230.891571 66.532326,232.321487 60.526466,233.782333 
	C58.968063,234.161377 57.528702,235.086090 56.081352,235.848785 
	C54.772484,236.538498 53.501568,238.042648 52.258259,237.996368 
	C42.705585,237.640823 36.318092,244.714035 28.385788,248.075424 
	C23.462561,250.161682 19.229748,253.877197 14.344218,256.929565 
	C14.001397,256.997711 14.013912,257.015381 14.013912,257.015381 
	C15.760978,253.410294 17.371386,249.729691 19.306206,246.228348 
	C20.472464,244.117828 22.143270,242.286118 23.806980,240.177353 
	C24.026604,240.025574 23.977549,240.022980 23.977549,240.022980 
	C26.854660,235.813034 29.398008,231.321350 32.670292,227.445007 
	C43.271473,214.886826 54.575317,203.051178 69.713432,195.132690 
	C70.079033,195.060120 70.215240,195.105713 70.215240,195.105713 
	C70.215240,195.105713 69.970726,195.022278 69.970726,195.022278 
	C74.224602,194.558289 78.477394,193.708420 82.732544,193.696381 
	C102.273331,193.641144 121.823631,193.502640 141.352295,194.047180 
	C151.294998,194.324417 161.199234,195.980743 171.559586,197.008423 
	C171.998306,197.003204 171.985519,196.986862 171.985519,196.986862 
	C176.569489,197.423553 181.173752,197.711090 185.732819,198.330917 
	C193.096527,199.332001 200.433594,200.532059 207.775101,201.691238 
	C209.956268,202.035629 212.114578,202.524689 214.283371,202.947479 
	C214.493027,202.272583 214.702682,201.597702 214.912354,200.922806 
	C201.781601,195.994278 188.650864,191.065750 175.260986,186.070343 
	C175.001831,186.003479 174.986465,185.989670 174.986465,185.989670 
	C168.600250,184.337418 162.214020,182.685165 155.420547,181.020203 
	C155.013290,181.007507 155.035385,181.032318 155.035385,181.032318 
	C153.267792,180.713470 151.496613,180.413055 149.733353,180.071854 
	C146.314941,179.410355 142.900955,178.725952 139.243454,178.030121 
	C139.001770,178.009186 138.956604,177.962967 138.956604,177.962967 
	C143.928864,175.127182 148.865112,172.225311 153.890137,169.486328 
	C156.066345,168.300140 158.592316,167.714493 160.674316,166.403351 
	C172.989563,158.647537 186.309296,154.367493 200.887299,153.460159 
	C205.920898,153.146866 210.853394,151.221405 215.836060,150.049255 
	C216.150452,149.975296 216.499466,150.053177 216.832352,150.052444 
	C229.408844,150.024628 241.986694,150.092499 254.561157,149.917862 
	C259.333069,149.851593 264.097229,149.226730 268.882050,147.997147 
	C265.963715,147.449661 263.064209,146.594650 260.123383,146.414673 
	C252.539627,145.950546 244.932388,145.878998 237.345367,145.456146 
	C234.075653,145.273926 230.839935,144.315247 227.575928,144.235687 
	C222.594116,144.114243 217.578186,144.812378 212.618820,144.498260 
	C206.541107,144.113312 200.508926,143.026077 194.452866,142.276428 
	C190.834015,141.828491 187.216904,141.281601 183.581985,141.064392 
	C173.036514,140.434265 162.460770,139.134628 152.768402,135.124817 
	C141.863831,130.613525 131.426514,124.866440 121.108894,119.080956 
	C114.465118,115.355537 111.127556,108.364670 106.806862,102.332687 
	C100.118553,92.995346 93.806786,83.543297 90.862770,72.298645 
	C90.046509,69.180931 89.930145,65.879967 89.492668,62.663078 
	C90.063019,62.393951 90.633369,62.124821 91.203720,61.855694 
	C92.451149,63.607483 93.435699,65.649704 94.992928,67.059219 
	C100.775391,72.293167 106.588882,77.517670 112.698677,82.356918 
	C117.214729,85.933868 121.819504,89.953918 127.078941,91.910812 
	C135.578232,95.073166 144.592926,96.952621 153.491379,98.913712 
	C164.457840,101.330559 175.459595,103.460228 186.880096,102.190788 
	C190.710052,101.765060 194.713638,103.148285 198.657455,103.436005 
	C203.368027,103.779678 208.184891,103.333847 212.804321,104.119812 
	C222.372345,105.747749 231.855545,107.893913 241.345245,109.957451 
	C251.799789,112.230782 262.309937,114.329765 272.622375,117.140945 
	C277.824127,118.558929 282.642548,121.383095 287.809998,123.803757 
	C287.985687,124.036087 287.981140,123.982597 287.981140,123.982597 
	C298.715942,130.046906 310.294403,134.632538 319.034668,144.019363 
	C323.360992,148.665726 329.262024,151.805496 334.056274,156.070160 
	C337.467743,159.104813 340.369415,162.762390 343.213409,166.366974 
	C344.986877,168.614716 345.771057,171.858765 350.540222,171.494797 
	C349.645508,169.543716 349.242615,167.804855 348.223267,166.578369 
	C340.081146,156.781754 332.120697,146.804962 323.460205,137.482025 
	C319.720764,133.456573 314.456573,130.849289 309.891602,127.588562 
	C303.927673,123.328583 298.063049,118.919189 291.953308,114.880188 
	C290.131470,113.675812 287.492920,113.780807 285.468994,112.793175 
	C280.839355,110.533997 276.358124,107.970703 271.426819,105.296936 
	C271.037018,105.062958 270.836487,104.861816 270.836487,104.861816 
	C261.146606,101.275795 251.456741,97.689766 241.392242,94.057388 
	C241.017593,94.011024 241.039536,94.033592 241.039536,94.033592 
	C237.673904,93.306152 233.683670,93.479012 231.070892,91.666389 
	C225.396408,87.729706 219.983627,83.188721 215.290237,78.128349 
	C210.543579,73.010536 206.801819,66.962135 202.605331,61.332207 
	C198.693466,56.084084 195.130707,50.690517 195.015823,43.390373 
	C195.024872,42.977676 195.015579,43.017422 195.015579,43.017422 
	C194.022705,36.910683 192.504669,30.829882 192.201385,24.689085 
	C191.953979,19.680019 193.158691,14.599236 194.659698,9.429793 
	C195.869705,12.559025 197.329605,15.616846 198.247650,18.829508 
	C202.906189,35.132011 214.649429,45.996323 227.122604,56.136501 
	C233.100388,60.996185 239.528900,65.517769 246.338074,69.072227 
	C252.120667,72.090782 258.714081,73.591087 265.001099,75.599358 
	C272.689453,78.055260 280.432373,80.340309 288.561188,82.822556 
	C288.970673,82.945862 289.107483,83.113976 289.107483,83.113976 
	C291.841034,83.958923 294.574554,84.803871 297.645996,85.804596 
	C297.983917,85.960388 298.091827,86.073166 298.091827,86.073166 
	C306.845764,90.318245 315.599670,94.563332 324.670959,98.905754 
	C324.988342,99.003090 324.961945,98.978081 325.203552,99.227814 
	C326.734009,99.996399 328.022827,100.515259 329.425079,101.185448 
	C329.686707,101.540176 329.831787,101.745781 329.973724,101.953598 
	C336.693207,108.200287 343.862030,114.037163 350.023621,120.792702 
	C358.597870,130.193420 366.761017,140.024429 374.400330,150.196762 
	C377.693512,154.581894 379.234100,160.283157 381.804626,165.698746 
	C382.038330,166.010986 382.186310,166.153671 382.186310,166.153671 
	C384.213470,171.254868 386.240662,176.356049 388.102600,181.727264 
	C387.937347,181.997284 388.009094,181.992722 388.009094,181.992722 
	C392.777374,192.462143 392.526550,203.105759 390.875641,214.366455 
	C389.968964,220.550842 392.343292,227.466644 394.252686,233.744095 
	C396.217163,240.202469 399.331787,246.323410 402.130524,252.507202 
	C402.861908,254.123154 404.222351,255.482086 405.409149,256.859741 
	C413.152802,265.848755 413.011292,269.713409 404.300781,277.697144 
	C398.916260,282.632446 396.352692,288.678497 396.897247,295.897400 
	C397.408173,302.670898 398.252869,309.419189 398.952759,316.594727 
	C398.954834,317.010864 398.998779,316.998688 398.998779,316.998688 
	C402.259949,325.561798 406.432343,333.624542 412.060791,340.896271 
	C413.432983,342.669037 414.727417,344.501984 416.057617,346.307251 
	C415.747559,346.855347 415.437531,347.403412 415.127472,347.951477 
	C407.908356,345.365143 400.689240,342.778839 393.470123,340.192505 
	C393.152924,340.845306 392.835724,341.498138 392.518555,342.150940 
	C399.432648,346.669556 406.263519,351.322479 413.282990,355.671021 
	C421.164642,360.553650 429.260406,365.091187 437.125397,369.999451 
	C437.891235,370.477417 438.353210,372.968506 437.820160,373.731567 
	C435.758362,376.683044 433.140320,379.237915 430.913635,382.084564 
	C428.847107,384.726410 427.015259,387.551880 425.038696,390.648071 
	C424.997314,390.999664 425.018707,390.979156 425.018707,390.979156 
	C424.702881,392.086975 424.387054,393.194824 424.042419,394.641785 
	C424.013580,394.980896 424.038086,394.959229 424.038086,394.959229 
	C423.736420,396.234680 423.135620,397.522644 423.188354,398.783264 
	C423.357117,402.820618 422.021423,405.763123 418.194794,407.567871 
	C413.149475,409.947327 408.242188,412.617767 403.222015,415.052673 
	C397.724701,417.719086 392.166321,420.259613 386.313934,422.899353 
	C385.993347,422.943756 385.994659,423.004333 385.994659,423.004333 
M325.950989,306.925903 
	C325.950989,306.925903 326.183441,307.157532 326.797760,307.481720 
	C331.527679,308.647278 336.257599,309.812836 341.000336,310.998230 
	C341.000336,310.998230 341.015472,311.014252 341.625580,311.383026 
	C344.757874,312.263031 347.890167,313.143036 350.999908,314.003052 
	C350.999908,314.003052 350.979523,313.981110 351.535522,314.412628 
	C358.150024,316.692169 364.204437,320.931274 372.908081,321.246887 
	C369.676361,315.496216 367.030792,311.146179 364.725098,306.622955 
	C355.409241,288.347504 341.812103,274.014038 324.983643,262.472748 
	C321.679657,260.206848 319.170258,256.799011 316.218048,253.998322 
	C313.825043,251.728119 311.295990,249.602036 308.869995,247.365707 
	C307.691315,246.279175 306.465302,245.194870 305.514313,243.920334 
	C303.281128,240.927368 301.140015,237.860504 299.080444,234.745010 
	C297.807526,232.819473 296.348633,230.875946 295.675720,228.721115 
	C293.656525,222.255219 291.982391,215.681549 289.945343,208.974335 
	C289.945343,208.974335 289.717010,208.798798 289.762543,207.887085 
	C289.906677,200.395432 290.114410,192.904007 290.140106,185.411957 
	C290.145111,183.952942 289.442139,182.491531 289.065704,181.031204 
	C287.709991,181.804947 286.132050,182.344910 285.033539,183.389206 
	C275.803650,192.163422 274.975830,203.922897 274.106720,215.520218 
	C273.779327,219.889221 273.364014,224.911789 275.115997,228.635620 
	C278.502625,235.833862 283.052521,242.579376 287.818024,248.994186 
	C290.183594,252.178467 294.177582,254.120041 297.266327,256.816803 
	C298.449066,257.849457 299.161865,259.420288 300.082062,261.348083 
	C300.724792,263.530945 301.367493,265.713806 301.701508,268.371490 
	C302.250427,270.050049 302.380890,272.065094 303.416107,273.352631 
	C310.201782,281.792175 316.719727,290.284760 318.179382,301.545593 
	C318.372589,303.036346 319.899109,304.354248 321.014740,305.997375 
	C321.014740,305.997375 321.221466,306.242462 321.843597,306.413971 
	C323.134888,306.507782 324.426147,306.601593 325.950989,306.925903 
M276.126831,150.804230 
	C282.475128,152.169800 288.823425,153.535370 295.738220,155.022797 
	C293.962036,149.247177 283.951385,147.458694 276.126831,150.804230 
M211.546860,278.494202 
	C211.546860,278.494202 211.496826,278.510162 211.546860,278.494202 
M214.494537,279.543976 
	C214.494537,279.543976 214.471481,279.488495 214.494537,279.543976 
M315.522247,296.483124 
	C315.522247,296.483124 315.479126,296.497803 315.522247,296.483124 
M47.525429,339.497070 
	C47.525429,339.497070 47.488564,339.507721 47.525429,339.497070 
M389.522400,340.549255 
	C389.522400,340.549255 389.499664,340.493378 389.522400,340.549255 
z"/>
<path fill="#1C1C1C" opacity="1.000000" stroke="none" 
	d="
M125.041168,422.956390 
	C125.281853,421.601562 125.522530,420.246765 125.849243,418.463715 
	C125.935295,418.035492 126.124725,417.880920 126.124725,417.880920 
	C126.651314,412.081940 127.177910,406.282959 127.704506,400.483978 
	C128.061646,400.258606 128.418777,400.033234 128.775909,399.807831 
	C131.260788,403.460236 133.596970,407.226257 136.275467,410.730652 
	C138.609406,413.784271 141.366180,416.511414 143.866745,419.442017 
	C145.676880,421.563538 147.229340,423.920135 149.152939,425.926208 
	C152.419159,429.332458 155.728317,432.731171 159.310364,435.792572 
	C163.956375,439.763336 168.846085,443.454681 173.705521,447.168640 
	C180.504486,452.364868 187.149002,457.811584 194.290237,462.494415 
	C198.949066,465.549408 204.932983,466.691772 209.340652,470.000122 
	C219.782333,477.837555 229.613846,486.485352 239.758209,494.724091 
	C241.234650,495.923187 243.021164,496.786835 244.755539,497.614227 
	C253.528244,501.799286 262.101685,506.540436 271.182953,509.904266 
	C281.934265,513.886658 293.132721,516.661926 304.571045,519.981323 
	C305.004700,520.002319 305.023895,520.024109 305.023895,520.024109 
	C305.656677,520.222229 306.282715,520.565979 306.923309,520.595642 
	C312.501678,520.854370 318.086029,520.996826 323.661041,521.308350 
	C325.612396,521.417419 327.542847,522.156555 329.482758,522.156128 
	C332.627777,522.155396 335.773743,521.795105 338.916595,521.551453 
	C339.394073,521.514465 339.928986,521.059814 340.315765,521.182312 
	C348.250427,523.694702 355.503143,519.086060 363.606323,519.025635 
	C364.030548,519.018005 363.981873,519.017090 363.981873,519.017090 
	C365.389709,518.884644 366.797577,518.752136 368.205414,518.619629 
	C368.274963,519.031494 368.344543,519.443298 368.414093,519.855164 
	C356.439697,524.769165 344.465271,529.683167 332.244263,534.797180 
	C331.997620,534.997192 332.023071,534.975769 332.023071,534.975769 
	C330.526031,535.521484 329.028992,536.067200 327.265808,536.805420 
	C326.999634,536.997925 327.019745,536.979736 327.019745,536.979736 
	C318.768097,539.784729 310.523590,542.611206 302.256134,545.368835 
	C301.170380,545.731018 299.967194,545.741272 298.308411,545.895508 
	C297.633972,545.833740 297.469574,545.791077 297.305145,545.748352 
	C297.552063,545.821045 297.799011,545.893738 298.045959,545.966370 
	C278.272583,548.187500 258.612518,552.598450 238.535583,548.969727 
	C236.947281,548.682678 235.274796,548.861389 233.317123,548.912964 
	C232.992798,549.002258 233.014603,548.974060 233.014603,548.974060 
	C223.124786,546.341248 213.035828,544.272278 203.416214,540.874512 
	C197.163239,538.665894 191.593979,534.521606 185.361420,531.129028 
	C185.004425,531.013550 184.965439,530.973206 184.965454,530.973206 
	C179.162384,527.208984 173.254211,523.594055 167.602570,519.614746 
	C164.957642,517.752441 162.846512,515.144226 160.426300,512.948059 
	C154.891495,507.925720 148.756744,503.434509 143.890839,497.836487 
	C137.093079,490.015869 131.790115,480.872467 124.824432,473.227264 
	C116.198082,463.759338 119.525360,453.623077 121.250580,443.330170 
	C122.008163,438.810303 122.726852,434.283569 123.528732,429.771606 
	C123.895699,427.706757 124.421021,425.670013 124.936211,423.306580 
	C124.997894,422.992645 125.041168,422.956390 125.041168,422.956390 
z"/>
<path fill="#1C1B1B" opacity="1.000000" stroke="none" 
	d="
M109.967583,449.061890 
	C111.237701,461.596161 112.418961,474.140594 113.845192,486.657074 
	C114.170540,489.512329 115.495422,492.241516 116.046379,495.089447 
	C116.257637,496.181488 115.591331,497.443329 115.158409,499.368011 
	C113.671562,498.075012 112.742554,497.460999 112.057831,496.642639 
	C101.586960,484.127686 90.595680,471.993958 80.917870,458.890869 
	C75.494568,451.548096 72.245010,442.596619 68.042709,434.356384 
	C65.722160,429.806030 63.456741,425.227570 61.093216,420.318054 
	C61.019966,419.974335 61.018475,420.020630 61.018478,420.020630 
	C57.047688,406.967285 52.946640,393.951111 49.199272,380.833954 
	C48.282360,377.624420 48.523289,374.084106 48.197594,370.186035 
	C48.289795,369.346710 48.416286,369.017212 48.021458,370.045654 
	C48.243050,369.092407 48.133568,369.563385 48.024082,370.034363 
	C48.360764,364.742981 47.137215,358.680847 49.304394,354.293701 
	C58.657097,335.360657 69.084137,316.964722 83.485374,301.229156 
	C85.051308,299.518127 85.642586,295.768738 89.699585,298.290253 
	C90.266830,306.538666 90.583664,314.191681 90.900497,321.844666 
	C91.864815,331.297974 92.829140,340.751312 93.896835,350.584534 
	C94.000198,350.964478 94.016174,350.944519 93.937531,351.196899 
	C93.908592,352.307404 93.958282,353.165497 94.005203,354.016785 
	C94.002441,354.009949 93.992401,353.999847 93.992401,353.999847 
	C94.640015,355.808136 95.287628,357.616455 95.960526,359.729309 
	C95.985802,360.033875 95.982079,359.981445 95.982079,359.981445 
	C97.427277,363.915375 98.867477,367.851196 100.324348,371.780792 
	C100.495491,372.242462 100.975937,372.685455 100.946007,373.111328 
	C100.486710,379.646973 104.906197,384.085480 107.856636,389.115906 
	C112.378998,396.826385 112.846581,405.010498 111.369446,413.570740 
	C110.471222,418.776123 109.872879,424.033234 108.870827,430.023071 
	C108.419502,436.483948 108.199768,442.188416 108.138565,447.894592 
	C108.134460,448.277130 109.330002,448.672485 109.967583,449.061890 
z"/>
<path fill="#1C1C1C" opacity="1.000000" stroke="none" 
	d="
M38.039024,188.978653 
	C30.609938,191.454453 23.180851,193.930237 15.751763,196.406036 
	C15.450219,195.920929 15.148675,195.435822 14.847131,194.950714 
	C15.670703,193.656448 16.302721,192.176758 17.347878,191.096954 
	C26.491673,181.649918 36.366108,173.115662 46.729778,164.941544 
	C57.299694,156.604736 69.470856,151.887070 81.092537,145.869431 
	C88.251793,142.162399 95.452324,138.447678 102.925835,135.467438 
	C107.463318,133.658035 112.556511,133.242218 117.709663,132.348236 
	C118.017670,132.669067 118.016083,132.842041 118.002319,133.028809 
	C117.990150,133.042603 117.986015,132.985367 118.115387,132.950195 
	C118.156273,132.613754 118.067772,132.312485 117.979279,132.011230 
	C121.517357,132.095718 125.301231,131.397278 128.546021,132.415970 
	C137.229507,135.142120 145.548462,139.056732 154.268860,141.629318 
	C161.054886,143.631271 168.237366,144.270737 175.219330,145.639893 
	C177.007278,145.990494 178.703110,146.811035 180.797806,147.539703 
	C174.450897,149.486038 168.888138,151.157730 163.347580,152.900055 
	C157.140594,154.851944 150.953751,156.867798 144.379852,158.889374 
	C144.001572,158.922913 143.978516,159.017441 143.978516,159.017441 
	C141.227600,160.665192 138.445480,162.263367 135.731674,163.970139 
	C128.027878,168.815277 120.072678,173.321564 112.733681,178.670883 
	C102.898056,185.839981 92.230446,182.596924 81.817535,182.119354 
	C88.866447,181.983566 95.831261,181.983566 102.796082,181.983566 
	C102.778084,181.531891 102.760094,181.080231 102.742096,180.628555 
	C95.490341,181.087280 88.238579,181.546005 80.986824,182.004730 
	C66.561028,182.620804 52.212242,183.712051 38.226677,188.927246 
	C37.928062,188.967712 38.039024,188.978653 38.039024,188.978653 
z"/>
<path fill="#1F1D1F" opacity="1.000000" stroke="none" 
	d="
M330.209229,102.001602 
	C329.831787,101.745781 329.686707,101.540176 329.152527,100.953751 
	C327.498383,100.039841 326.230164,99.508965 324.961945,98.978081 
	C324.961945,98.978081 324.988342,99.003090 325.004303,99.012192 
	C319.120819,93.935028 313.592926,88.297783 307.179901,83.973106 
	C303.448517,81.456810 301.624207,79.356171 302.499298,74.933922 
	C303.101898,71.888603 303.217438,68.746910 303.792908,65.331650 
	C304.035187,65.015015 303.980469,65.020691 303.980469,65.020691 
	C304.982239,62.209515 305.984009,59.398331 307.478302,56.319618 
	C309.642700,56.366436 311.314545,56.680786 312.986420,56.995136 
	C315.196930,72.102692 321.604065,85.460205 330.092377,97.942528 
	C331.879974,100.571228 331.919861,100.544113 330.209229,102.001602 
z"/>
<path fill="#2E292A" opacity="1.000000" stroke="none" 
	d="
M312.966736,56.579865 
	C311.314545,56.680786 309.642700,56.366436 307.624939,55.978477 
	C308.293060,52.181339 309.307068,48.457809 310.321075,44.734280 
	C310.684601,44.755997 311.048126,44.777718 311.411652,44.799438 
	C311.923462,48.587822 312.435242,52.376205 312.966736,56.579865 
z"/>
<path fill="#0F080B" opacity="1.000000" stroke="none" 
	d="
M109.970573,448.588318 
	C109.330002,448.672485 108.134460,448.277130 108.138565,447.894592 
	C108.199768,442.188416 108.419502,436.483948 108.720978,430.387695 
	C109.217934,436.035828 109.595749,442.075287 109.970573,448.588318 
z"/>
<path fill="#2E292A" opacity="1.000000" stroke="none" 
	d="
M90.928513,321.389587 
	C90.583664,314.191681 90.266830,306.538666 89.946976,298.411957 
	C90.305443,299.017487 90.967026,300.093384 90.979286,301.176575 
	C91.053818,307.761627 90.980499,314.348328 90.928513,321.389587 
z"/>
<path fill="#2E292A" opacity="1.000000" stroke="none" 
	d="
M254.846039,148.970047 
	C248.899353,148.967117 243.306274,148.967117 237.713211,148.967117 
	C237.715714,148.743286 237.718216,148.519470 237.720718,148.295639 
	C244.168030,148.295639 250.615356,148.295639 257.062683,148.295639 
	C257.069336,148.458237 257.076019,148.620834 257.082703,148.783432 
	C256.455017,148.846619 255.827347,148.909790 254.846039,148.970047 
z"/>
<path fill="#1C1C1C" opacity="1.000000" stroke="none" 
	d="
M424.000854,394.989014 
	C424.385651,396.479675 424.783173,397.962250 425.180695,399.444794 
	C424.788940,399.505585 424.397156,399.566406 424.005402,399.627197 
	C424.005402,398.314667 424.005402,397.002106 424.021729,395.324402 
	C424.038086,394.959229 424.013580,394.980896 424.000854,394.989014 
z"/>
<path fill="#1C1C1C" opacity="1.000000" stroke="none" 
	d="
M304.996826,519.990417 
	C305.267395,519.833069 305.545868,519.687683 305.824341,519.542236 
	C305.650909,519.698547 305.477509,519.854919 305.164001,520.017700 
	C305.023895,520.024109 305.004700,520.002319 304.996826,519.990417 
z"/>
<path fill="#1C1C1C" opacity="1.000000" stroke="none" 
	d="
M241.009644,93.998856 
	C240.743912,94.116096 240.486130,94.245506 240.228348,94.374924 
	C240.407547,94.267479 240.586746,94.160034 240.902740,94.043091 
	C241.039536,94.033592 241.017593,94.011024 241.009644,93.998856 
z"/>
<path fill="#1C1B1B" opacity="1.000000" stroke="none" 
	d="
M93.989967,350.971436 
	C94.084930,351.828766 94.190125,352.679169 94.143860,353.764709 
	C93.992401,353.999847 94.002441,354.009949 93.975632,353.631958 
	C93.971275,352.484161 93.993721,351.714325 94.016174,350.944519 
	C94.016174,350.944519 94.000198,350.964478 93.989967,350.971436 
z"/>
<path fill="#1C1C1C" opacity="1.000000" stroke="none" 
	d="
M155.004547,180.994202 
	C154.723557,181.131195 154.451294,181.281494 154.179047,181.431808 
	C154.368408,181.299423 154.557785,181.167023 154.891266,181.033478 
	C155.035385,181.032318 155.013290,181.007507 155.004547,180.994202 
z"/>
<path fill="#1C1C1C" opacity="1.000000" stroke="none" 
	d="
M232.980774,549.015625 
	C233.129349,549.051208 233.289917,549.073425 233.450485,549.095642 
	C233.335709,549.137878 233.220932,549.180115 233.060379,549.098206 
	C233.014603,548.974060 232.992798,549.002258 232.980774,549.015625 
z"/>
<path fill="#1C1C1C" opacity="1.000000" stroke="none" 
	d="
M288.902527,82.861588 
	C288.998016,82.861855 289.161652,82.946396 289.216370,83.072456 
	C289.107483,83.113976 288.970673,82.945862 288.902527,82.861588 
z"/>
<path fill="#1C1C1C" opacity="1.000000" stroke="none" 
	d="
M124.975830,423.010254 
	C124.953766,423.027832 124.744270,422.693695 124.744270,422.693695 
	C124.744270,422.693695 125.001770,422.812439 125.021469,422.884399 
	C125.041168,422.956390 124.997894,422.992645 124.975830,423.010254 
z"/>
<path fill="#1C1C1C" opacity="1.000000" stroke="none" 
	d="
M125.840454,418.112610 
	C125.840805,418.024963 125.935997,417.860168 126.077957,417.788147 
	C126.124725,417.880920 125.935295,418.035492 125.840454,418.112610 
z"/>
<path fill="#1C1C1C" opacity="1.000000" stroke="none" 
	d="
M105.089249,342.092926 
	C105.013046,342.128479 104.832314,342.077820 104.713440,341.930969 
	C104.775291,341.834747 104.984726,342.006714 105.089249,342.092926 
z"/>
<path fill="#1C1C1C" opacity="1.000000" stroke="none" 
	d="
M277.999908,455.999390 
	C277.999817,455.998779 278.290497,455.754547 278.290497,455.754547 
	C278.290497,455.754547 278.148956,455.972870 278.075073,455.986786 
	C278.001221,456.000702 278.000000,456.000000 277.999908,455.999390 
z"/>
<path fill="#1C1C1C" opacity="1.000000" stroke="none" 
	d="
M371.488037,518.489807 
	C371.501221,518.521179 371.474854,518.458435 371.488037,518.489807 
z"/>
<path fill="#1C1C1C" opacity="1.000000" stroke="none" 
	d="
M424.987122,391.010559 
	C424.976929,391.021484 425.023621,391.029541 425.021179,391.004333 
	C425.018707,390.979156 424.997314,390.999664 424.987122,391.010559 
z"/>
<path fill="#1C1C1C" opacity="1.000000" stroke="none" 
	d="
M358.061035,390.083923 
	C358.106506,390.131927 357.881134,390.014160 357.902771,389.977173 
	C357.924408,389.940216 358.015564,390.035950 358.061035,390.083923 
z"/>
<path fill="#1C1C1C" opacity="1.000000" stroke="none" 
	d="
M349.018372,422.044281 
	C349.093445,422.116058 348.756012,421.956818 348.774658,421.892822 
	C348.793274,421.828796 348.943298,421.972504 349.018372,422.044281 
z"/>
<path fill="#1C1C1C" opacity="1.000000" stroke="none" 
	d="
M204.012878,449.017120 
	C204.023849,449.028717 203.933624,449.013947 203.956635,448.998962 
	C203.979645,448.983978 204.001907,449.005524 204.012878,449.017120 
z"/>
<path fill="#1C1C1C" opacity="1.000000" stroke="none" 
	d="
M326.990265,537.007568 
	C326.980896,537.017212 327.021912,537.028259 327.020813,537.004028 
	C327.019745,536.979736 326.999634,536.997925 326.990265,537.007568 
z"/>
<path fill="#1C1C1C" opacity="1.000000" stroke="none" 
	d="
M209.119141,451.144165 
	C209.212540,451.236359 208.923447,451.254883 208.923447,451.254883 
	C208.923447,451.254883 208.798981,451.006104 208.819641,450.936188 
	C208.840286,450.866272 209.025757,451.052002 209.119141,451.144165 
z"/>
<path fill="#1C1C1C" opacity="1.000000" stroke="none" 
	d="
M331.986420,535.009521 
	C331.975220,535.021790 332.027954,535.020203 332.025513,534.997986 
	C332.023071,534.975769 331.997620,534.997192 331.986420,535.009521 
z"/>
<path fill="#1C1C1C" opacity="1.000000" stroke="none" 
	d="
M274.906677,454.878418 
	C274.838623,454.808014 275.155853,454.984924 275.133423,455.037231 
	C275.110992,455.089508 274.974762,454.948792 274.906677,454.878418 
z"/>
<path fill="#1C1C1C" opacity="1.000000" stroke="none" 
	d="
M221.021149,455.030670 
	C221.040390,455.050018 220.917526,455.012634 220.940643,454.992432 
	C220.963745,454.972260 221.001907,455.011322 221.021149,455.030670 
z"/>
<path fill="#1C1C1C" opacity="1.000000" stroke="none" 
	d="
M185.023926,531.033752 
	C185.043442,531.053955 184.915146,531.015503 184.940292,530.994385 
	C184.965439,530.973206 185.004425,531.013550 185.023926,531.033752 
z"/>
<path fill="#1C1C1C" opacity="1.000000" stroke="none" 
	d="
M297.930115,85.903854 
	C297.876282,85.847313 298.129822,85.988754 298.110840,86.030960 
	C298.091827,86.073166 297.983917,85.960388 297.930115,85.903854 
z"/>
<path fill="#1C1C1C" opacity="1.000000" stroke="none" 
	d="
M271.137817,105.162971 
	C271.238647,105.262985 270.907959,105.306831 270.907959,105.306831 
	C270.907959,105.306831 270.776398,105.018250 270.806458,104.940033 
	C270.836487,104.861816 271.037018,105.062958 271.137817,105.162971 
z"/>
<path fill="#1C1C1C" opacity="1.000000" stroke="none" 
	d="
M381.964417,165.939590 
	C381.890472,165.868195 382.220642,166.030930 382.203491,166.092300 
	C382.186310,166.153671 382.038330,166.010986 381.964417,165.939590 
z"/>
<path fill="#1C1C1C" opacity="1.000000" stroke="none" 
	d="
M139.024872,178.031769 
	C139.047958,178.054352 138.925339,178.004822 138.940979,177.983887 
	C138.956604,177.962967 139.001770,178.009186 139.024872,178.031769 
z"/>
<path fill="#1C1C1C" opacity="1.000000" stroke="none" 
	d="
M175.009552,186.012115 
	C175.017273,186.020752 174.937286,186.016785 174.961884,186.003235 
	C174.986465,185.989670 175.001831,186.003479 175.009552,186.012115 
z"/>
<path fill="#1C1C1C" opacity="1.000000" stroke="none" 
	d="
M172.006348,197.009888 
	C172.014404,197.016571 172.009827,196.954056 171.997681,196.970459 
	C171.985519,196.986862 171.998306,197.003204 172.006348,197.009888 
z"/>
<path fill="#1C1C1C" opacity="1.000000" stroke="none" 
	d="
M143.988342,239.009094 
	C143.977585,239.020538 144.024994,239.022919 144.023911,238.999954 
	C144.022827,238.976990 143.999084,238.997665 143.988342,239.009094 
z"/>
<path fill="#1C1C1C" opacity="1.000000" stroke="none" 
	d="
M13.992683,256.991486 
	C13.983971,256.985260 13.987014,257.038086 14.000463,257.026733 
	C14.013912,257.015381 14.001397,256.997711 13.992683,256.991486 
z"/>
<path fill="#1C1C1C" opacity="1.000000" stroke="none" 
	d="
M109.008118,354.016388 
	C109.029572,354.037201 108.902092,353.997711 108.923157,353.975616 
	C108.944214,353.953522 108.986671,353.995575 109.008118,354.016388 
z"/>
<path fill="#1C1C1C" opacity="1.000000" stroke="none" 
	d="
M287.991699,360.990265 
	C287.981537,360.982758 287.985016,361.034760 288.001099,361.026520 
	C288.017151,361.018280 288.001892,360.997772 287.991699,360.990265 
z"/>
<path fill="#010101" opacity="1.000000" stroke="none" 
	d="
M320.808136,305.752197 
	C319.899109,304.354248 318.372589,303.036346 318.179382,301.545593 
	C316.719727,290.284760 310.201782,281.792175 303.416107,273.352631 
	C302.380890,272.065094 302.250427,270.050049 302.200195,268.255707 
	C307.364563,270.442169 312.030243,272.744415 316.695953,275.046661 
	C317.100037,274.346436 317.504120,273.646210 317.908203,272.945984 
	C311.968414,268.879272 306.028625,264.812561 300.088837,260.745850 
	C299.161865,259.420288 298.449066,257.849457 297.266327,256.816803 
	C294.177582,254.120041 290.183594,252.178467 287.818024,248.994186 
	C283.052521,242.579376 278.502625,235.833862 275.115997,228.635620 
	C273.364014,224.911789 273.779327,219.889221 274.106720,215.520218 
	C274.975830,203.922897 275.803650,192.163422 285.033539,183.389206 
	C286.132050,182.344910 287.709991,181.804947 289.065704,181.031219 
	C289.442139,182.491531 290.145111,183.952942 290.140106,185.411957 
	C290.114410,192.904007 289.906677,200.395432 289.646423,208.490128 
	C289.494354,209.393768 289.458435,209.694351 289.422546,209.994949 
	C289.672913,209.713287 289.923248,209.431610 290.173615,209.149948 
	C291.982391,215.681549 293.656525,222.255219 295.675720,228.721115 
	C296.348633,230.875946 297.807526,232.819473 299.080444,234.745010 
	C301.140015,237.860504 303.281128,240.927368 305.514313,243.920334 
	C306.465302,245.194870 307.691315,246.279175 308.869995,247.365707 
	C311.295990,249.602036 313.825043,251.728119 316.218048,253.998322 
	C319.170258,256.799011 321.679657,260.206848 324.983643,262.472748 
	C341.812103,274.014038 355.409241,288.347504 364.725098,306.622955 
	C367.030792,311.146179 369.676361,315.496216 372.908081,321.246887 
	C364.204437,320.931274 358.150024,316.692169 351.280579,314.193390 
	C351.025604,313.974152 351.022461,314.023041 351.022461,314.023041 
	C347.890167,313.143036 344.757874,312.263031 341.410583,311.181213 
	C341.126251,310.979034 341.056885,310.978699 340.987518,310.978394 
	C336.257599,309.812836 331.527679,308.647278 326.529114,307.224121 
	C326.260498,306.966492 326.110504,306.608490 326.110504,306.608490 
	C326.110504,306.608490 325.717438,306.695404 325.717438,306.695404 
	C324.426147,306.601593 323.134888,306.507782 321.622437,306.260895 
	C321.203583,305.989258 321.005859,305.870728 320.808136,305.752197 
M363.567352,317.504028 
	C363.567352,317.504028 363.464813,317.558228 363.567352,317.504028 
z"/>
<path fill="#231F22" opacity="1.000000" stroke="none" 
	d="
M300.085449,261.046967 
	C306.028625,264.812561 311.968414,268.879272 317.908203,272.945984 
	C317.504120,273.646210 317.100037,274.346436 316.695953,275.046661 
	C312.030243,272.744415 307.364563,270.442169 302.354553,268.018311 
	C301.367493,265.713806 300.724792,263.530945 300.085449,261.046967 
z"/>
<path fill="#0F080B" opacity="1.000000" stroke="none" 
	d="
M276.243958,150.606323 
	C283.951385,147.458694 293.962036,149.247177 295.738220,155.022797 
	C288.823425,153.535370 282.475128,152.169800 276.243958,150.606323 
z"/>
<path fill="#000000" opacity="1.000000" stroke="none" 
	d="
M325.203552,99.227814 
	C326.230164,99.508965 327.498383,100.039841 329.039124,100.802422 
	C328.022827,100.515259 326.734009,99.996399 325.203552,99.227814 
z"/>
<path fill="#000000" opacity="1.000000" stroke="none" 
	d="
M69.981331,195.011658 
	C69.970726,195.022278 70.215240,195.105713 70.215240,195.105713 
	C70.215240,195.105713 70.079033,195.060120 70.043594,195.018341 
	C70.008148,194.976562 69.991936,195.001022 69.981331,195.011658 
z"/>
<path fill="#000000" opacity="1.000000" stroke="none" 
	d="
M352.009064,389.010803 
	C352.019958,389.019012 352.016205,388.964935 351.998199,388.973145 
	C351.980194,388.981384 351.998169,389.002625 352.009064,389.010803 
z"/>
<path fill="#000000" opacity="1.000000" stroke="none" 
	d="
M385.997467,423.001953 
	C385.994659,423.004333 385.993347,422.943756 386.000610,422.967590 
	C386.007874,422.991394 386.000275,422.999542 385.997467,423.001953 
z"/>
<path fill="#000000" opacity="1.000000" stroke="none" 
	d="
M261.994507,449.990356 
	C261.987579,449.983856 261.993988,450.054382 262.003906,450.032715 
	C262.013855,450.011047 262.001404,449.996826 261.994507,449.990356 
z"/>
<path fill="#000000" opacity="1.000000" stroke="none" 
	d="
M266.991272,451.989441 
	C266.982208,451.983185 266.987579,452.041168 267.000366,452.027161 
	C267.013123,452.013123 267.000305,451.995667 266.991272,451.989441 
z"/>
<path fill="#000000" opacity="1.000000" stroke="none" 
	d="
M23.986855,240.012024 
	C23.977549,240.022980 24.026604,240.025574 24.021740,240.003601 
	C24.016874,239.981644 23.996162,240.001083 23.986855,240.012024 
z"/>
<path fill="#000000" opacity="1.000000" stroke="none" 
	d="
M195.006195,43.008217 
	C195.015579,43.017422 195.024872,42.977676 195.002136,42.978096 
	C194.979416,42.978519 194.996811,42.999008 195.006195,43.008217 
z"/>
<path fill="#000000" opacity="1.000000" stroke="none" 
	d="
M287.991638,123.990158 
	C287.981140,123.982597 287.985687,124.036087 288.002075,124.027283 
	C288.018463,124.018478 288.002106,123.997726 287.991638,123.990158 
z"/>
<path fill="#000000" opacity="1.000000" stroke="none" 
	d="
M388.004761,181.996704 
	C388.009094,181.992722 387.937347,181.997284 387.964722,182.003235 
	C387.992065,182.009201 388.000458,182.000671 388.004761,181.996704 
z"/>
<path fill="#000000" opacity="1.000000" stroke="none" 
	d="
M92.989792,239.007828 
	C92.979988,239.018570 93.028633,239.017838 93.025620,238.998535 
	C93.022614,238.979218 92.999596,238.997086 92.989792,239.007828 
z"/>
<path fill="#000000" opacity="1.000000" stroke="none" 
	d="
M177.996155,364.994965 
	C177.990128,364.988617 177.968185,365.016968 177.991684,365.016357 
	C178.015182,365.015778 178.002167,365.001312 177.996155,364.994965 
z"/>
<path fill="#000000" opacity="1.000000" stroke="none" 
	d="
M211.521851,278.502197 
	C211.496826,278.510162 211.546860,278.494202 211.521851,278.502197 
z"/>
<path fill="#000000" opacity="1.000000" stroke="none" 
	d="
M214.483002,279.516235 
	C214.471481,279.488495 214.494537,279.543976 214.483002,279.516235 
z"/>
<path fill="#010101" opacity="1.000000" stroke="none" 
	d="
M315.500671,296.490479 
	C315.479126,296.497803 315.522247,296.483124 315.500671,296.490479 
z"/>
<path fill="#000000" opacity="1.000000" stroke="none" 
	d="
M197.001740,300.998474 
	C197.003464,300.996948 197.016953,301.046021 197.007416,301.024231 
	C196.997864,301.002411 197.000000,301.000000 197.001740,300.998474 
z"/>
<path fill="#000000" opacity="1.000000" stroke="none" 
	d="
M398.999390,316.999329 
	C398.998779,316.998688 398.954834,317.010864 398.978363,317.006287 
	C399.001892,317.001709 399.000000,317.000000 398.999390,316.999329 
z"/>
<path fill="#000000" opacity="1.000000" stroke="none" 
	d="
M102.991776,335.004395 
	C102.985680,335.010742 103.056900,335.004272 103.033974,334.995300 
	C103.011047,334.986359 102.997864,334.998077 102.991776,335.004395 
z"/>
<path fill="#000000" opacity="1.000000" stroke="none" 
	d="
M47.506996,339.502380 
	C47.488564,339.507721 47.525429,339.497070 47.506996,339.502380 
z"/>
<path fill="#000000" opacity="1.000000" stroke="none" 
	d="
M389.511047,340.521301 
	C389.499664,340.493378 389.522400,340.549255 389.511047,340.521301 
z"/>
<path fill="#000000" opacity="1.000000" stroke="none" 
	d="
M298.034821,545.976074 
	C297.799011,545.893738 297.552063,545.821045 297.305145,545.748352 
	C297.469574,545.791077 297.633972,545.833740 297.904266,545.941895 
	C298.010132,546.007324 298.023682,545.985779 298.034821,545.976074 
z"/>
<path fill="#000000" opacity="1.000000" stroke="none" 
	d="
M363.990326,519.007324 
	C363.981873,519.017090 364.030548,519.018005 364.025024,519.000244 
	C364.019501,518.982544 363.998779,518.997620 363.990326,519.007324 
z"/>
<path fill="#000000" opacity="1.000000" stroke="none" 
	d="
M48.016792,370.025024 
	C48.133568,369.563385 48.243050,369.092407 48.021458,370.045654 
	C48.416286,369.017212 48.289795,369.346710 48.078213,369.841583 
	C47.993122,370.006989 48.009506,370.015686 48.016792,370.025024 
z"/>
<path fill="#000000" opacity="1.000000" stroke="none" 
	d="
M93.937531,351.196899 
	C93.993721,351.714325 93.971275,352.484161 93.978401,353.638794 
	C93.958282,353.165497 93.908592,352.307404 93.937531,351.196899 
z"/>
<path fill="#000000" opacity="1.000000" stroke="none" 
	d="
M61.007515,420.010071 
	C61.018475,420.020630 61.019966,419.974335 60.998528,419.975067 
	C60.977089,419.975800 60.996559,419.999512 61.007515,420.010071 
z"/>
<path fill="#000000" opacity="1.000000" stroke="none" 
	d="
M95.991898,359.989502 
	C95.982079,359.981445 95.985802,360.033875 96.000923,360.025879 
	C96.016045,360.017914 96.001717,359.997559 95.991898,359.989502 
z"/>
<path fill="#010101" opacity="1.000000" stroke="none" 
	d="
M80.982376,181.993561 
	C88.238579,181.546005 95.490341,181.087280 102.742096,180.628555 
	C102.760094,181.080231 102.778084,181.531891 102.796082,181.983566 
	C95.831261,181.983566 88.866447,181.983566 81.428421,181.973557 
	C80.955200,181.963547 80.977928,181.982407 80.982376,181.993561 
z"/>
<path fill="#000000" opacity="1.000000" stroke="none" 
	d="
M118.014488,133.014999 
	C118.016083,132.842041 118.017670,132.669067 118.019363,132.236557 
	C118.019470,131.977005 118.000191,131.995972 117.989731,132.003601 
	C118.067772,132.312485 118.156273,132.613754 118.123611,132.956482 
	C118.002457,132.997955 118.014488,133.014999 118.014488,133.014999 
z"/>
<path fill="#000000" opacity="1.000000" stroke="none" 
	d="
M38.028725,188.985687 
	C38.039024,188.978653 37.928062,188.967712 37.967899,188.988953 
	C38.007736,189.010178 38.018429,188.992706 38.028725,188.985687 
z"/>
<path fill="#000000" opacity="1.000000" stroke="none" 
	d="
M117.994232,132.991669 
	C117.986015,132.985367 117.990150,133.042603 118.002319,133.028809 
	C118.014488,133.014999 118.002457,132.997955 117.994232,132.991669 
z"/>
<path fill="#000000" opacity="1.000000" stroke="none" 
	d="
M143.991760,159.004196 
	C143.978516,159.017441 144.001572,158.922913 144.016937,158.943497 
	C144.032318,158.964081 144.004990,158.990952 143.991760,159.004196 
z"/>
<path fill="#000000" opacity="1.000000" stroke="none" 
	d="
M303.988831,65.009293 
	C303.980469,65.020691 304.035187,65.015015 304.027283,64.997269 
	C304.019379,64.979530 303.997162,64.997902 303.988831,65.009293 
z"/>
<path fill="#1C1C1C" opacity="1.000000" stroke="none" 
	d="
M290.059479,209.062134 
	C289.923248,209.431610 289.672913,209.713287 289.422546,209.994949 
	C289.458435,209.694351 289.494354,209.393768 289.623657,208.945984 
	C289.717010,208.798798 289.945343,208.974335 290.059479,209.062134 
z"/>
<path fill="#1C1C1C" opacity="1.000000" stroke="none" 
	d="
M340.993927,310.988281 
	C341.056885,310.978699 341.126251,310.979034 341.105530,310.996826 
	C341.015472,311.014252 341.000336,310.998230 340.993927,310.988281 
z"/>
<path fill="#1C1C1C" opacity="1.000000" stroke="none" 
	d="
M320.911438,305.874786 
	C321.005859,305.870728 321.203583,305.989258 321.311401,306.175140 
	C321.221466,306.242462 321.014740,305.997375 320.911438,305.874786 
z"/>
<path fill="#1C1C1C" opacity="1.000000" stroke="none" 
	d="
M363.516083,317.531128 
	C363.464813,317.558228 363.567352,317.504028 363.516083,317.531128 
z"/>
<path fill="#1C1C1C" opacity="1.000000" stroke="none" 
	d="
M325.834229,306.810669 
	C325.717438,306.695404 326.110504,306.608490 326.110504,306.608490 
	C326.110504,306.608490 326.260498,306.966492 326.221985,307.062012 
	C326.183441,307.157532 325.950989,306.925903 325.834229,306.810669 
z"/>
<path fill="#1C1C1C" opacity="1.000000" stroke="none" 
	d="
M351.011169,314.013062 
	C351.022461,314.023041 351.025604,313.974152 351.002563,313.977631 
	C350.979523,313.981110 350.999908,314.003052 351.011169,314.013062 
z"/>
</svg>